<svg width="760" height="620" viewBox="0 0 760 620" xmlns="http://www.w3.org/2000/svg">
  <rect width="760" height="620" rx="22" fill="#f7f7fa"/>
  <rect x="1" y="1" width="758" height="618" rx="22" fill="none" stroke="#c7c7cc"/>
  <path d="M369 0 L389 0 L379 12 Z" fill="#f7f7fa"/>
  <rect x="34" y="32" width="692" height="556" rx="18" fill="#ffffff" stroke="#d7d7dc"/>
  <text x="66" y="78" font-size="24" font-weight="760" fill="#1d1d1f" font-family="-apple-system, BlinkMacSystemFont, Helvetica, Arial, sans-serif">TokenKick</text>
  <rect x="552" y="52" width="132" height="30" rx="15" fill="#e7f6ec" stroke="none"/><text x="567" y="73" font-size="13" font-weight="600" fill="#137333" font-family="-apple-system, BlinkMacSystemFont, Helvetica, Arial, sans-serif">Ready</text>
  <text x="66" y="112" font-size="14" font-weight="400" fill="#6e6e73" font-family="-apple-system, BlinkMacSystemFont, Helvetica, Arial, sans-serif">3 visible accounts · daemon polling every 5 minutes</text>
  <line x1="66" y1="140" x2="694" y2="140" stroke="#ececf0"/>
  <circle cx="82" cy="188" r="8" fill="#34c759"/><text x="104" y="194" font-size="17" font-weight="650" fill="#1d1d1f" font-family="-apple-system, BlinkMacSystemFont, Helvetica, Arial, sans-serif">codex-spark (lab)</text>
  <text x="104" y="220" font-size="14" font-weight="400" fill="#137333" font-family="-apple-system, BlinkMacSystemFont, Helvetica, Arial, sans-serif">Weekly ready · session ready</text>
  <text x="548" y="194" font-size="16" font-weight="700" fill="#1d1d1f" font-family="-apple-system, BlinkMacSystemFont, Helvetica, Arial, sans-serif">Kick now</text>
  <line x1="66" y1="250" x2="694" y2="250" stroke="#ececf0"/>
  <circle cx="82" cy="298" r="8" fill="#ff9f0a"/><text x="104" y="304" font-size="17" font-weight="650" fill="#1d1d1f" font-family="-apple-system, BlinkMacSystemFont, Helvetica, Arial, sans-serif">claude (personal)</text>
  <text x="104" y="330" font-size="14" font-weight="400" fill="#6e6e73" font-family="-apple-system, BlinkMacSystemFont, Helvetica, Arial, sans-serif">Session resets in 42m</text>
  <text x="548" y="304" font-size="16" font-weight="400" fill="#6e6e73" font-family="-apple-system, BlinkMacSystemFont, Helvetica, Arial, sans-serif">Wait</text>
  <line x1="66" y1="360" x2="694" y2="360" stroke="#ececf0"/>
  <circle cx="82" cy="408" r="8" fill="#0a84ff"/><text x="104" y="414" font-size="17" font-weight="650" fill="#1d1d1f" font-family="-apple-system, BlinkMacSystemFont, Helvetica, Arial, sans-serif">codex (work)</text>
  <text x="104" y="440" font-size="14" font-weight="400" fill="#185abc" font-family="-apple-system, BlinkMacSystemFont, Helvetica, Arial, sans-serif">Active · 2h 35m left</text>
  <text x="548" y="414" font-size="16" font-weight="400" fill="#6e6e73" font-family="-apple-system, BlinkMacSystemFont, Helvetica, Arial, sans-serif">Use</text>
  <rect x="66" y="482" width="628" height="1" fill="#ececf0"/>
  <rect x="66" y="514" width="158" height="30" rx="15" fill="#1d1d1f" stroke="none"/><text x="81" y="535" font-size="13" font-weight="600" fill="#ffffff" font-family="-apple-system, BlinkMacSystemFont, Helvetica, Arial, sans-serif">Open app</text>
  <rect x="242" y="514" width="160" height="30" rx="15" fill="#f2f2f4" stroke="#d1d1d6"/><text x="257" y="535" font-size="13" font-weight="600" fill="#1d1d1f" font-family="-apple-system, BlinkMacSystemFont, Helvetica, Arial, sans-serif">Refresh</text>
  <rect x="420" y="514" width="182" height="30" rx="15" fill="#f2f2f4" stroke="#d1d1d6"/><text x="435" y="535" font-size="13" font-weight="600" fill="#1d1d1f" font-family="-apple-system, BlinkMacSystemFont, Helvetica, Arial, sans-serif">Show history</text>
  <text x="66" y="574" font-size="13" font-weight="400" fill="#8e8e93" font-family="-apple-system, BlinkMacSystemFont, Helvetica, Arial, sans-serif">Synthetic demo data</text>
</svg>
